<svg xmlns="http://www.w3.org/2000/svg" viewBox="0 0 920 220" role="img" aria-label="System architecture: any inverter or solarbank publishes via MQTT; Home Assistant and other consumers use the same contract">
  <defs>
    <marker id="arrow" markerWidth="8" markerHeight="8" refX="7" refY="4" orient="auto">
      <path d="M0,0 L8,4 L0,8 Z" fill="#57606a"/>
    </marker>
    <marker id="arrow-both" markerWidth="8" markerHeight="8" refX="4" refY="4" orient="auto">
      <path d="M0,0 L8,4 L0,8 Z" fill="#57606a"/>
    </marker>
  </defs>
  <style>
    .box { fill: #f6f8fa; stroke: #d0d7de; stroke-width: 1.5; }
    .group { fill: none; stroke: #8c959f; stroke-width: 1.5; stroke-dasharray: 6 4; }
    .title { font: 600 12px system-ui, sans-serif; fill: #24292f; }
    .label { font: 12px system-ui, sans-serif; fill: #24292f; }
    .small { font: 11px system-ui, sans-serif; fill: #57606a; }
    .edge { stroke: #57606a; stroke-width: 1.5; fill: none; marker-end: url(#arrow); }
    .edge-both { stroke: #57606a; stroke-width: 1.5; fill: none; marker-start: url(#arrow-both); marker-end: url(#arrow-both); }
    .edge-label { font: 10px system-ui, sans-serif; fill: #57606a; }
  </style>

  <!-- Acquisition -->
  <rect class="group" x="10" y="20" width="250" height="180" rx="8"/>
  <text class="title" x="24" y="42">Acquisition (pluggable)</text>
  <rect class="box" x="34" y="70" width="88" height="44" rx="6"/>
  <text class="label" x="78" y="90" text-anchor="middle">Inverter /</text>
  <text class="label" x="78" y="106" text-anchor="middle">solarbank</text>
  <rect class="box" x="148" y="58" width="96" height="68" rx="6"/>
  <text class="label" x="196" y="82" text-anchor="middle">MQTT adapter</text>
  <text class="small" x="196" y="98" text-anchor="middle">optional ·</text>
  <text class="small" x="196" y="112" text-anchor="middle">any vendor</text>
  <line class="edge-both" x1="122" y1="92" x2="148" y2="92"/>
  <text class="edge-label" x="135" y="84" text-anchor="middle">LAN</text>

  <!-- Contract -->
  <rect class="group" x="280" y="20" width="170" height="180" rx="8"/>
  <text class="title" x="294" y="42">Stable contract</text>
  <rect class="box" x="304" y="78" width="122" height="64" rx="6"/>
  <text class="label" x="365" y="102" text-anchor="middle">Mosquitto</text>
  <text class="small" x="365" y="120" text-anchor="middle">solar/site/inverter/</text>

  <!-- Consumers -->
  <rect class="group" x="470" y="20" width="440" height="180" rx="8"/>
  <text class="title" x="484" y="42">Consumers (vendor-agnostic)</text>
  <rect class="box" x="500" y="68" width="118" height="56" rx="6"/>
  <text class="label" x="559" y="92" text-anchor="middle">Home Assistant</text>
  <text class="small" x="559" y="108" text-anchor="middle">MQTT + recorder</text>
  <rect class="box" x="636" y="78" width="96" height="36" rx="6"/>
  <text class="label" x="684" y="101" text-anchor="middle">CSV export</text>
  <rect class="box" x="748" y="78" width="108" height="36" rx="6"/>
  <text class="label" x="802" y="101" text-anchor="middle">Watchdog</text>

  <!-- Edges -->
  <path class="edge" d="M122 128 C180 150, 250 150, 304 128" stroke-dasharray="4 3"/>
  <text class="edge-label" x="200" y="148">native MQTT</text>
  <path class="edge" d="M244 110 C262 110, 268 110, 304 110"/>
  <text class="edge-label" x="272" y="102">MQTT publish</text>
  <path class="edge" d="M426 100 C448 90, 478 82, 500 90"/>
  <path class="edge" d="M426 120 C448 130, 478 138, 500 130"/>
  <path class="edge" d="M426 110 C455 110, 710 110, 748 96"/>
  <path class="edge" d="M618 96 C626 96, 630 96, 636 96"/>
</svg>
